<svg xmlns="http://www.w3.org/2000/svg" xmlns:xlink="http://www.w3.org/1999/xlink" width="201" height="196" viewBox="0 0 201 196">
  <defs>
    <clipPath id="clip-path">
      <rect id="Rectángulo_218" data-name="Rectángulo 218" width="201" height="196" transform="translate(347 1938)" fill="#fff" stroke="#707070" stroke-width="1"/>
    </clipPath>
  </defs>
  <g id="Enmascarar_grupo_24" data-name="Enmascarar grupo 24" transform="translate(-347 -1938)" clip-path="url(#clip-path)">
    <g id="Recurso_12" data-name="Recurso 12" transform="translate(349.5 1938)">
      <g id="Capa_1" data-name="Capa 1">
        <path id="Trazado_90" data-name="Trazado 90" d="M45.394,0H150.606A45.394,45.394,0,0,1,196,45.394V196H0V45.394A45.394,45.394,0,0,1,45.394,0Z" fill="#37345f"/>
        <path id="Trazado_91" data-name="Trazado 91" d="M139.712,53.06H56.288a3.228,3.228,0,0,0-3.228,3.228v83.424a3.228,3.228,0,0,0,3.228,3.228h83.424a3.178,3.178,0,0,0,3.228-3.228V56.288a3.228,3.228,0,0,0-3.228-3.228Zm-3.228,83.424H59.516V59.516h76.968Z" fill="#be9bc8"/>
        <path id="Trazado_92" data-name="Trazado 92" d="M69.755,119.133a3.531,3.531,0,0,0,3.278-2.32l3.985-10.087H91.847l3.985,10.087a3.379,3.379,0,0,0,3.228,2.27,3.43,3.43,0,0,0,3.48-3.43,5.043,5.043,0,0,0,0-1.412L87.913,77.321A3.48,3.48,0,0,0,84.685,75.1a3.329,3.329,0,0,0-3.228,2.219L66.88,114.19a4.186,4.186,0,0,0-.3,1.463A3.48,3.48,0,0,0,69.755,119.133Zm9.634-18.864,5.044-13.114,5.044,13.114Z" fill="#be9bc8"/>
        <path id="Trazado_93" data-name="Trazado 93" d="M117.469,119.385a15.131,15.131,0,0,0,10.34-3.732,3.14,3.14,0,0,0-3.985-4.842,9.583,9.583,0,0,1-6.355,2.32,7.112,7.112,0,0,1-7.566-7.213h16.19c3.732,0,3.732-3.631,3.732-5.044a12.155,12.155,0,0,0-12.761-13.063c-8.625,0-13.719,5.9-13.719,15.736S108.289,119.385,117.469,119.385Zm-.555-25.219c2.471,0,5.7.656,6.2,5.9H110a6.506,6.506,0,0,1,6.91-5.952Z" fill="#be9bc8"/>
      </g>
    </g>
  </g>
</svg>
