<svg xmlns="http://www.w3.org/2000/svg" xmlns:xlink="http://www.w3.org/1999/xlink" width="58" height="54" viewBox="0 0 58 54">
  <defs>
    <clipPath id="clip-path">
      <path id="Rectángulo_213" data-name="Rectángulo 213" d="M24,0H34A24,24,0,0,1,58,24V54a0,0,0,0,1,0,0H0a0,0,0,0,1,0,0V24A24,24,0,0,1,24,0Z" transform="translate(529 1793)" fill="#37424a"/>
    </clipPath>
  </defs>
  <g id="Enmascarar_grupo_13" data-name="Enmascarar grupo 13" transform="translate(-529 -1793)" clip-path="url(#clip-path)">
    <g id="Recurso_12" data-name="Recurso 12" transform="translate(531 1793)">
      <g id="Capa_1" data-name="Capa 1">
        <path id="Trazado_49" data-name="Trazado 49" d="M12.506,0H41.494A12.506,12.506,0,0,1,54,12.506V54H0V12.506A12.506,12.506,0,0,1,12.506,0Z" fill="#37345f"/>
        <path id="Trazado_50" data-name="Trazado 50" d="M38.492,14.619H15.508a.889.889,0,0,0-.889.889V38.492a.889.889,0,0,0,.889.889H38.492a.875.875,0,0,0,.889-.889V15.508a.889.889,0,0,0-.889-.889ZM37.6,37.6H16.4V16.4H37.6Z" fill="#be9bc8"/>
        <path id="Trazado_51" data-name="Trazado 51" d="M19.218,32.822a.973.973,0,0,0,.9-.639l1.1-2.779H25.3l1.1,2.779a.931.931,0,0,0,.889.625.945.945,0,0,0,.959-.945,1.39,1.39,0,0,0,0-.389L24.221,21.3a.959.959,0,0,0-.889-.611.917.917,0,0,0-.889.611L18.426,31.461a1.153,1.153,0,0,0-.083.4A.959.959,0,0,0,19.218,32.822Zm2.654-5.2,1.39-3.613,1.39,3.613Z" fill="#be9bc8"/>
        <path id="Trazado_52" data-name="Trazado 52" d="M32.364,32.892a4.169,4.169,0,0,0,2.849-1.028.865.865,0,0,0-1.1-1.334,2.64,2.64,0,0,1-1.751.639,1.959,1.959,0,0,1-2.084-1.987H34.74c1.028,0,1.028-1,1.028-1.39a3.349,3.349,0,0,0-3.516-3.6c-2.376,0-3.78,1.626-3.78,4.336S29.835,32.892,32.364,32.892Zm-.153-6.948c.681,0,1.57.181,1.709,1.626H30.307a1.793,1.793,0,0,1,1.9-1.64Z" fill="#be9bc8"/>
      </g>
    </g>
  </g>
</svg>
