<svg xmlns="http://www.w3.org/2000/svg" xmlns:xlink="http://www.w3.org/1999/xlink" width="92" height="134" viewBox="0 0 92 134">
  <defs>
    <clipPath id="clip-path">
      <rect id="Rect치ngulo_234" data-name="Rect치ngulo 234" width="77.82" height="70.207" fill="#d8bebe" stroke="#707070" stroke-width="1"/>
    </clipPath>
  </defs>
  <g id="Grupo_79" data-name="Grupo 79" transform="translate(-974.82 -428)">
    <g id="Grupo_69" data-name="Grupo 69" transform="translate(983 442)">
      <text id="EDITORIAL" transform="translate(7.613 100.279)" fill="#fff" font-size="13" font-family="Poppins-Medium, Poppins Medium" font-weight="500"><tspan x="0" y="0">EDITORIAL</tspan></text>
      <g id="Enmascarar_grupo_37" data-name="Enmascarar grupo 37" transform="translate(0 0)" clip-path="url(#clip-path)">
        <g id="Recurso_23" data-name="Recurso 23" transform="translate(5.332)">
          <g id="Capa_1" data-name="Capa 1">
            <path id="Trazado_125" data-name="Trazado 125" d="M59.52,70.207H7.635A7.635,7.635,0,0,1,0,62.572V1.531A1.531,1.531,0,0,1,1.531,0H53.416a1.541,1.541,0,0,1,1.409.929,1.48,1.48,0,0,1,.122.6h0V22.9H65.624a1.531,1.531,0,0,1,1.531,1.521V62.572A7.635,7.635,0,0,1,59.52,70.207ZM51.9,62.572V3.062H3.062v59.51h0a4.583,4.583,0,0,0,4.583,4.583H53.457A7.554,7.554,0,0,1,51.9,62.572ZM64.144,25.948H54.957V62.572a4.593,4.593,0,0,0,9.187,0ZM7.635,59.52A1.521,1.521,0,0,1,9.187,58H22.9a1.531,1.531,0,0,1,0,3.062H9.187A1.521,1.521,0,0,1,7.635,59.52ZM14.78,34.665a1.49,1.49,0,0,1-2.1-2.1l9.013-9.013a1.021,1.021,0,0,1,.143-.214,1.49,1.49,0,0,1,1.092-.439,1.531,1.531,0,0,1,1.092.439,1.562,1.562,0,0,1,.143.214l6.39,6.39L33.9,26.6a1.562,1.562,0,0,1,.143-.214,1.6,1.6,0,0,1,2.184,0,1.563,1.563,0,0,1,.143.214l5.961,5.961A1.512,1.512,0,0,1,40.2,34.706l-5.1-5.1-2.429,2.45.51.51a1.516,1.516,0,1,1-2.144,2.144L22.865,26.54Zm17.353,8.074H45.791a1.531,1.531,0,0,1,0,3.062H32.052a1.531,1.531,0,0,1,0-3.062Zm0,7.625H45.791a1.531,1.531,0,0,1,0,3.062H32.052a1.531,1.531,0,0,1,0-3.062Zm0,7.635H45.791a1.531,1.531,0,0,1,0,3.062H32.052a1.531,1.531,0,0,1,0-3.062ZM33.654,22.13a2.246,2.246,0,1,0-.082,0Zm4.583-8.391H16.791a1.531,1.531,0,0,1,0-3.062H38.156a1.531,1.531,0,1,1,0,3.062ZM9.187,50.364H22.9a1.531,1.531,0,0,1,0,3.062H9.187a1.531,1.531,0,0,1,0-3.062ZM24.5,44.239a1.521,1.521,0,0,1-1.521,1.531H9.187a1.531,1.531,0,0,1,0-3.062H22.9a1.521,1.521,0,0,1,1.521,1.552Z" fill="#fff"/>
          </g>
        </g>
      </g>
    </g>
    <rect id="Rect치ngulo_346" data-name="Rect치ngulo 346" width="92" height="134" transform="translate(974.82 428)" fill="none" opacity="0.16"/>
  </g>
</svg>
