<svg xmlns="http://www.w3.org/2000/svg" xmlns:xlink="http://www.w3.org/1999/xlink" width="92" height="134" viewBox="0 0 92 134">
  <defs>
    <clipPath id="clip-path">
      <rect id="Rect치ngulo_240" data-name="Rect치ngulo 240" width="77.82" height="70.21" transform="translate(0 0)" fill="#d8bebe" stroke="#707070" stroke-width="1"/>
    </clipPath>
  </defs>
  <g id="Grupo_79" data-name="Grupo 79" transform="translate(-974.82 -562)">
    <rect id="Rect치ngulo_355" data-name="Rect치ngulo 355" width="92" height="134" transform="translate(974.82 562)" fill="none" opacity="0.451"/>
    <g id="Enmascarar_grupo_30" data-name="Enmascarar grupo 30" transform="translate(983.18 575)" clip-path="url(#clip-path)">
      <g id="editorial" transform="translate(5.332 0)">
        <g id="Capa_1" data-name="Capa 1">
          <path id="Trazado_106" data-name="Trazado 106" d="M59.52,70.21H7.635A7.635,7.635,0,0,1,0,62.574V1.531A1.531,1.531,0,0,1,1.531,0H53.416a1.541,1.541,0,0,1,1.409.929,1.48,1.48,0,0,1,.122.6h0V22.9H65.624a1.531,1.531,0,0,1,1.531,1.521V62.574A7.635,7.635,0,0,1,59.52,70.21Zm-7.625-7.636V3.062H3.062V62.574h0a4.583,4.583,0,0,0,4.583,4.583H53.457A7.554,7.554,0,0,1,51.895,62.574ZM64.144,25.949H54.957V62.574a4.593,4.593,0,1,0,9.187,0ZM7.635,59.522A1.521,1.521,0,0,1,9.187,58H22.9a1.531,1.531,0,0,1,0,3.062H9.187a1.521,1.521,0,0,1-1.552-1.541ZM14.78,34.666a1.49,1.49,0,0,1-2.1-2.1l9.013-9.014a1.021,1.021,0,0,1,.143-.214,1.49,1.49,0,0,1,1.092-.439,1.531,1.531,0,0,1,1.092.439,1.561,1.561,0,0,1,.143.214l6.39,6.39L33.9,26.6a1.563,1.563,0,0,1,.143-.214,1.6,1.6,0,0,1,2.184,0,1.562,1.562,0,0,1,.143.214l5.961,5.961A1.512,1.512,0,0,1,40.2,34.707l-5.1-5.1-2.429,2.45.51.51a1.516,1.516,0,0,1-2.144,2.144l-8.166-8.166Zm17.353,8.074H45.791a1.531,1.531,0,0,1,0,3.062H32.052a1.531,1.531,0,0,1,0-3.062Zm0,7.625H45.791a1.531,1.531,0,0,1,0,3.062H32.052a1.531,1.531,0,0,1,0-3.062Zm0,7.636H45.791a1.531,1.531,0,0,1,0,3.062H32.052a1.531,1.531,0,0,1,0-3.062Zm1.521-35.871a2.246,2.246,0,1,0-.082,0Zm4.583-8.391H16.791a1.531,1.531,0,0,1,0-3.062H38.156a1.531,1.531,0,0,1,0,3.062ZM9.187,50.366H22.9a1.531,1.531,0,0,1,0,3.062H9.187a1.531,1.531,0,0,1,0-3.062ZM24.5,44.241a1.521,1.521,0,0,1-1.521,1.531H9.187a1.531,1.531,0,0,1,0-3.062H22.9a1.521,1.521,0,0,1,1.521,1.552Z" fill="#ef797a"/>
        </g>
      </g>
    </g>
    <text id="EDITORIAL-2" data-name="EDITORIAL" transform="translate(990.959 675.297)" fill="#f27979" font-size="13" font-family="Poppins-Medium, Poppins Medium" font-weight="500"><tspan x="0" y="0">EDITORIAL</tspan></text>
  </g>
</svg>
