<svg xmlns="http://www.w3.org/2000/svg" xmlns:xlink="http://www.w3.org/1999/xlink" width="92" height="125" viewBox="0 0 92 125">
  <defs>
    <clipPath id="clip-path">
      <rect id="Rectángulo_234" data-name="Rectángulo 234" width="92" height="83" transform="translate(969 486)" fill="#d8bebe" stroke="#707070" stroke-width="1"/>
    </clipPath>
  </defs>
  <g id="Grupo_69" data-name="Grupo 69" transform="translate(-969 -486)">
    <text id="EDITORIAL" transform="translate(978 605)" fill="#fff" font-size="16" font-family="Poppins-Medium, Poppins Medium" font-weight="500"><tspan x="0" y="0">EDITORIAL</tspan></text>
    <g id="Enmascarar_grupo_37" data-name="Enmascarar grupo 37" clip-path="url(#clip-path)">
      <g id="Recurso_23" data-name="Recurso 23" transform="translate(975.304 486)">
        <g id="Capa_1" data-name="Capa 1">
          <path id="Trazado_125" data-name="Trazado 125" d="M70.365,83H9.026A9.026,9.026,0,0,1,0,73.974V1.81A1.81,1.81,0,0,1,1.81,0H63.149a1.822,1.822,0,0,1,1.665,1.1,1.75,1.75,0,0,1,.145.712h0V27.067H77.582a1.81,1.81,0,0,1,1.81,1.8V73.974A9.026,9.026,0,0,1,70.365,83Zm-9.014-9.026V3.62H3.62V73.974h0a5.418,5.418,0,0,0,5.418,5.418H63.2a8.93,8.93,0,0,1-1.846-5.418Zm14.481-43.3H64.971v43.3a5.43,5.43,0,0,0,10.861,0ZM9.026,70.365a1.8,1.8,0,0,1,1.834-1.8H27.067a1.81,1.81,0,1,1,0,3.62H10.861a1.8,1.8,0,0,1-1.834-1.822Zm8.447-29.384A1.762,1.762,0,0,1,14.988,38.5L25.643,27.84a1.207,1.207,0,0,1,.169-.253,1.762,1.762,0,0,1,1.291-.519,1.81,1.81,0,0,1,1.291.519,1.846,1.846,0,0,1,.169.253l7.554,7.554,3.958-3.946a1.847,1.847,0,0,1,.169-.253,1.9,1.9,0,0,1,2.582,0,1.847,1.847,0,0,1,.169.253L50.044,38.5a1.788,1.788,0,0,1-2.522,2.534L41.488,35l-2.872,2.9.6.6a1.792,1.792,0,0,1-2.534,2.534l-9.654-9.654Zm20.515,9.545H54.135a1.81,1.81,0,0,1,0,3.62H37.892a1.81,1.81,0,0,1,0-3.62Zm0,9.014H54.135a1.81,1.81,0,0,1,0,3.62H37.892a1.81,1.81,0,0,1,0-3.62Zm0,9.026H54.135a1.81,1.81,0,0,1,0,3.62H37.892a1.81,1.81,0,0,1,0-3.62Zm1.8-42.405a2.655,2.655,0,1,0-.1,0ZM45.2,16.243H19.851a1.81,1.81,0,1,1,0-3.62H45.108a1.81,1.81,0,1,1,0,3.62Zm-34.344,43.3H27.067a1.81,1.81,0,1,1,0,3.62H10.861a1.81,1.81,0,0,1,0-3.62Zm18.1-7.24a1.8,1.8,0,0,1-1.8,1.81h-16.3a1.81,1.81,0,0,1,0-3.62H27.067a1.8,1.8,0,0,1,1.8,1.834Z" fill="#fff"/>
        </g>
      </g>
    </g>
  </g>
</svg>
