<svg xmlns="http://www.w3.org/2000/svg" xmlns:xlink="http://www.w3.org/1999/xlink" width="92" height="134" viewBox="0 0 92 134">
  <defs>
    <clipPath id="clip-path">
      <rect id="Rectángulo_238" data-name="Rectángulo 238" width="77.82" height="70.21" transform="translate(0 0)" fill="#d8bebe" stroke="#707070" stroke-width="1"/>
    </clipPath>
  </defs>
  <g id="Grupo_77" data-name="Grupo 77" transform="translate(-638.82 -562)">
    <rect id="Rectángulo_353" data-name="Rectángulo 353" width="92" height="134" transform="translate(638.82 562)" fill="none" opacity="0.451"/>
    <g id="Enmascarar_grupo_28" data-name="Enmascarar grupo 28" transform="translate(646.608 575)" clip-path="url(#clip-path)">
      <g id="fotografia" transform="translate(0 6.343)">
        <g id="Capa_1" data-name="Capa 1" transform="translate(0)">
          <path id="Trazado_104" data-name="Trazado 104" d="M71.057,57.524H6.763A6.763,6.763,0,0,1,0,50.752V13.536A6.763,6.763,0,0,1,6.763,6.763h1.7A3.391,3.391,0,0,1,11.84,3.382h3.381a3.391,3.391,0,0,1,3.391,3.382h3.381a6.207,6.207,0,0,0,3.381-1.686L28.719,1.7A4.715,4.715,0,0,1,32.147,0H45.673A4.326,4.326,0,0,1,49.1,1.7l3.381,3.382a6.207,6.207,0,0,0,3.344,1.686h15.23a6.763,6.763,0,0,1,6.763,6.772V50.752a6.763,6.763,0,0,1-6.763,6.772Zm3.381-43.989a3.382,3.382,0,0,0-3.381-3.345h-15.6a9.514,9.514,0,0,1-5.429-2.724l-3.576-3.6-.13-.25a.973.973,0,0,0-.6-.232H32.147a1.445,1.445,0,0,0-.723.389l-.13.167-3.5,3.53a9.514,9.514,0,0,1-5.4,2.659H6.763a3.382,3.382,0,0,0-3.381,3.382V50.752a3.382,3.382,0,0,0,3.381,3.382H71.057a3.382,3.382,0,0,0,3.381-3.382ZM38.91,50.752a18.613,18.613,0,1,1,18.612-18.6A18.612,18.612,0,0,1,38.91,50.752Zm0-33.835A15.231,15.231,0,1,0,54.131,32.145,15.231,15.231,0,0,0,38.91,16.917Zm0,23.69a8.459,8.459,0,1,1,8.458-8.459,8.458,8.458,0,0,1-8.458,8.459Zm0-13.536a5.077,5.077,0,1,0,5.077,5.077A5.077,5.077,0,0,0,38.91,27.071ZM15.221,20.3H8.458a1.686,1.686,0,0,1-1.7-1.686V15.222a1.7,1.7,0,0,1,1.7-1.686h6.763a1.7,1.7,0,0,1,1.7,1.686v3.391a1.686,1.686,0,0,1-1.7,1.686Z" transform="translate(0)" fill="#ef797a"/>
        </g>
      </g>
    </g>
    <text id="FOTOGRAFÍA" transform="translate(648.337 675.297)" fill="#f27979" font-size="13" font-family="Poppins-Medium, Poppins Medium" font-weight="500"><tspan x="0" y="0">FOTOGRAFÍA</tspan></text>
  </g>
</svg>
