<svg xmlns="http://www.w3.org/2000/svg" xmlns:xlink="http://www.w3.org/1999/xlink" width="92" height="134.279" viewBox="0 0 92 134.279">
  <defs>
    <clipPath id="clip-path">
      <rect id="Rect치ngulo_231" data-name="Rect치ngulo 231" width="77.82" height="70.207" fill="#d8bebe" stroke="#707070" stroke-width="1"/>
    </clipPath>
  </defs>
  <g id="Grupo_76" data-name="Grupo 76" transform="translate(-467 -428)">
    <g id="Grupo_66" data-name="Grupo 66" transform="translate(468 442)">
      <text id="IDENTIDAD_CORPORATIVA" data-name="IDENTIDAD 
CORPORATIVA" transform="translate(45 100.279)" fill="#fff" font-size="13" font-family="Poppins-Medium, Poppins Medium" font-weight="500"><tspan x="-34.749" y="0">IDENTIDAD </tspan><tspan x="-45.266" y="15">CORPORATIVA</tspan></text>
      <g id="Enmascarar_grupo_33" data-name="Enmascarar grupo 33" transform="translate(6.767 0)" clip-path="url(#clip-path)">
        <g id="Recurso_19" data-name="Recurso 19" transform="translate(0 3.804)">
          <g id="Capa_1" data-name="Capa 1" transform="translate(0 0)">
            <path id="Trazado_117" data-name="Trazado 117" d="M71.057,62.6H6.763A6.772,6.772,0,0,1,0,55.827V20.3a6.763,6.763,0,0,1,6.763-6.763H32.147V6.763a6.763,6.763,0,1,1,13.526,0v6.772H71.057A6.763,6.763,0,0,1,77.82,20.3V55.827A6.772,6.772,0,0,1,71.057,62.6ZM27.089,49.888h0V48.573a19.038,19.038,0,0,0,3.437-2.335,5.151,5.151,0,0,0,1.251-2.3,57.162,57.162,0,0,0,.408-6.272c0-3.483-1.751-7.235-6.781-7.235h0c-5.031,0-6.781,3.706-6.781,7.235a56.844,56.844,0,0,0,.408,6.263,5.068,5.068,0,0,0,1.251,2.307,19.038,19.038,0,0,0,3.437,2.335v1.316h0s.046,1.936.046,2.511c0,2.307-2.307,3.419-3.761,3.419h0c-4.382.185-5.42,1.649-5.429,1.658a8.226,8.226,0,0,0-.973,1.732H37.224a7.791,7.791,0,0,0-.991-1.723S35.2,56.012,30.8,55.817h0c-1.454,0-3.761-1.112-3.761-3.419C27.043,51.825,27.089,49.888,27.089,49.888Zm15.2-43.125a3.381,3.381,0,0,0-6.763,0V16.954a3.381,3.381,0,1,0,6.763,0ZM74.439,20.3a3.391,3.391,0,0,0-3.381-3.381H45.673a6.763,6.763,0,1,1-13.526,0H6.763A3.391,3.391,0,0,0,3.381,20.3V55.827a3.381,3.381,0,0,0,3.381,3.381H9.811a18.3,18.3,0,0,1,1.955-3.789c.046,0,1.436-2.937,8.458-3.029V50.657a12.84,12.84,0,0,1-1.7-1.38A7.124,7.124,0,0,1,16.074,44.9a66.521,66.521,0,0,1-.825-7.05c0-5.364,2.14-10.793,10.07-10.793h.2c7.93,0,10.07,5.429,10.07,10.793a66.52,66.52,0,0,1-.825,7.05,7.124,7.124,0,0,1-2.455,4.373,11.821,11.821,0,0,1-1.779,1.38s0,1.7,0,1.732c7.022.093,8.412,3.011,8.458,3.029a18.3,18.3,0,0,1,1.955,3.789H71.057a3.381,3.381,0,0,0,3.381-3.381ZM65.98,35.529H45.673a1.7,1.7,0,0,1,0-3.381H65.98a1.7,1.7,0,0,1,0,3.381ZM45.673,42.292H49.1a1.7,1.7,0,0,1,0,3.381H45.673a1.7,1.7,0,0,1,0-3.381Zm0,6.772H55.864a1.7,1.7,0,1,1,0,3.381H45.673a1.7,1.7,0,0,1,0-3.381Zm6.772-5.077a1.686,1.686,0,0,1,1.686-1.7H60.9a1.7,1.7,0,1,1,0,3.381H54.131a1.677,1.677,0,0,1-1.686-1.686ZM37.215,6.763h3.391v3.428H37.215Z" transform="translate(0 0)" fill="#fff"/>
          </g>
        </g>
      </g>
    </g>
    <rect id="Rect치ngulo_343" data-name="Rect치ngulo 343" width="92" height="134" transform="translate(467 428)" fill="none" opacity="0.16"/>
  </g>
</svg>
