<svg xmlns="http://www.w3.org/2000/svg" xmlns:xlink="http://www.w3.org/1999/xlink" width="112" height="142" viewBox="0 0 112 142">
  <defs>
    <clipPath id="clip-path">
      <rect id="Rectángulo_237" data-name="Rectángulo 237" width="92" height="83" transform="translate(473 384)" fill="#d8bebe" stroke="#707070" stroke-width="1"/>
    </clipPath>
  </defs>
  <g id="Grupo_60" data-name="Grupo 60" transform="translate(-455 -785)">
    <g id="Enmascarar_grupo_27" data-name="Enmascarar grupo 27" transform="translate(-10 401)" clip-path="url(#clip-path)">
      <g id="identidad" transform="translate(473 388.497)">
        <g id="Capa_1" data-name="Capa 1">
          <path id="Trazado_103" data-name="Trazado 103" d="M84,74.005H8A8.006,8.006,0,0,1,0,66V24a8,8,0,0,1,8-8H38V8A8,8,0,0,1,54,8V16H84a8,8,0,0,1,8,8V66a8.006,8.006,0,0,1-8,8.006ZM32.025,58.979h0V57.423a22.507,22.507,0,0,0,4.063-2.76,6.09,6.09,0,0,0,1.479-2.716,67.578,67.578,0,0,0,.482-7.415c0-4.118-2.07-8.554-8.017-8.554h0c-5.947,0-8.017,4.381-8.017,8.554a67.2,67.2,0,0,0,.482,7.4,5.991,5.991,0,0,0,1.479,2.727,22.507,22.507,0,0,0,4.063,2.76v1.555h0s.055,2.289.055,2.968c0,2.727-2.727,4.041-4.447,4.041h0c-5.18.219-6.407,1.95-6.418,1.96A9.725,9.725,0,0,0,16.078,70H44.007a9.211,9.211,0,0,0-1.172-2.037s-1.227-1.741-6.418-1.971h0c-1.72,0-4.447-1.314-4.447-4.041C31.97,61.268,32.025,58.979,32.025,58.979ZM50,8a4,4,0,0,0-8,0V20.043a4,4,0,1,0,8,0ZM88,24a4.009,4.009,0,0,0-4-4H54A8,8,0,0,1,38,20H8a4.009,4.009,0,0,0-4,4V66a4,4,0,0,0,4,4h3.6a21.631,21.631,0,0,1,2.311-4.48c.055,0,1.7-3.472,10-3.581V59.888a15.18,15.18,0,0,1-2-1.632,8.422,8.422,0,0,1-2.9-5.17,78.642,78.642,0,0,1-.975-8.335c0-6.341,2.53-12.76,11.905-12.76h.241c9.375,0,11.905,6.418,11.905,12.76a78.641,78.641,0,0,1-.975,8.335,8.422,8.422,0,0,1-2.9,5.17,13.975,13.975,0,0,1-2.1,1.632s0,2.015,0,2.048c8.3.11,9.945,3.56,10,3.581A21.631,21.631,0,0,1,48.41,70H84a4,4,0,0,0,4-4ZM78,42H54a2,2,0,0,1,0-4H78a2,2,0,0,1,0,4ZM54,50h4.052a2,2,0,0,1,0,4H54a2,2,0,0,1,0-4ZM54,58H66.043a2,2,0,1,1,0,4H54a2,2,0,0,1,0-4ZM62,52a1.993,1.993,0,0,1,1.993-2H72a2,2,0,1,1,0,4H63.995A1.982,1.982,0,0,1,62,52ZM44,8H48v4.052H44Z" fill="#ef797a"/>
        </g>
      </g>
    </g>
    <text id="IDENTIDAD_CORPORATIVA" data-name="IDENTIDAD 
CORPORATIVA" transform="translate(511 903)" fill="#f27979" font-size="16" font-family="Poppins-Medium, Poppins Medium" font-weight="500"><tspan x="-42.768" y="0">IDENTIDAD </tspan><tspan x="-55.712" y="18">CORPORATIVA</tspan></text>
  </g>
</svg>
