<svg xmlns="http://www.w3.org/2000/svg" xmlns:xlink="http://www.w3.org/1999/xlink" width="58" height="54" viewBox="0 0 58 54">
  <defs>
    <clipPath id="clip-path">
      <path id="Rectángulo_212" data-name="Rectángulo 212" d="M24,0H34A24,24,0,0,1,58,24V54a0,0,0,0,1,0,0H0a0,0,0,0,1,0,0V24A24,24,0,0,1,24,0Z" transform="translate(445 1793)" fill="#37424a"/>
    </clipPath>
  </defs>
  <g id="Enmascarar_grupo_12" data-name="Enmascarar grupo 12" transform="translate(-445 -1793)" clip-path="url(#clip-path)">
    <g id="Recurso_9" data-name="Recurso 9" transform="translate(447 1793)">
      <g id="Capa_1" data-name="Capa 1">
        <path id="Trazado_45" data-name="Trazado 45" d="M12.462,0H40.154A13.846,13.846,0,0,1,54,13.846V54H0V12.462A12.462,12.462,0,0,1,12.462,0Z" fill="#522b40"/>
        <path id="Trazado_46" data-name="Trazado 46" d="M38.492,14.622H15.508a.886.886,0,0,0-.886.886V38.492a.886.886,0,0,0,.886.886H38.492a.886.886,0,0,0,.886-.886V15.508a.886.886,0,0,0-.886-.886Zm-.886,22.985H16.394V16.394H37.606Z" fill="#d83d8e"/>
        <path id="Trazado_47" data-name="Trazado 47" d="M23.054,32.815A.955.955,0,0,0,24,31.874V21.642a.942.942,0,0,0-1.883,0v10.2a.942.942,0,0,0,.942.969Z" fill="#d83d8e"/>
        <path id="Trazado_48" data-name="Trazado 48" d="M28.883,32.9A3.365,3.365,0,0,0,32.5,29.271V21.1a.9.9,0,0,0-.914-.914.886.886,0,0,0-.9.914v3.683a3.254,3.254,0,0,0-1.869-.582c-1.675,0-3.683.762-3.683,4.348C25.131,31.348,26.46,32.9,28.883,32.9Zm1.8-3.628c0,1.578-.983,1.911-1.8,1.911s-1.938-.277-1.938-2.631c0-2.631,1.454-2.631,1.938-2.631a2.091,2.091,0,0,1,1.8,1.163Z" fill="#d83d8e"/>
      </g>
    </g>
  </g>
</svg>
