<svg xmlns="http://www.w3.org/2000/svg" xmlns:xlink="http://www.w3.org/1999/xlink" width="201" height="196" viewBox="0 0 201 196">
  <defs>
    <clipPath id="clip-path">
      <rect id="Rectángulo_218" data-name="Rectángulo 218" width="201" height="196" transform="translate(347 1938)" fill="#fff" stroke="#707070" stroke-width="1"/>
    </clipPath>
  </defs>
  <g id="Enmascarar_grupo_19" data-name="Enmascarar grupo 19" transform="translate(-347 -1938)" clip-path="url(#clip-path)">
    <g id="Recurso_11" data-name="Recurso 11" transform="translate(349.5 1938)">
      <g id="Capa_1" data-name="Capa 1">
        <path id="Trazado_72" data-name="Trazado 72" d="M45.231,0H150.769A45.231,45.231,0,0,1,196,45.231V196H0V45.231A45.231,45.231,0,0,1,45.231,0Z" fill="#2d3067"/>
        <path id="Trazado_73" data-name="Trazado 73" d="M139.612,53.021H56.237a3.216,3.216,0,0,0-3.216,3.216v83.375a3.216,3.216,0,0,0,3.216,3.216h83.375a3.166,3.166,0,0,0,3.216-3.216V56.237a3.216,3.216,0,0,0-3.216-3.216ZM136.4,136.4H59.453V59.453H136.4V136.4Z" fill="#9fc6ea"/>
        <path id="Trazado_74" data-name="Trazado 74" d="M75.385,119.007A3.367,3.367,0,0,0,78.8,115.59V101.669H87.3A11.961,11.961,0,0,0,100.061,88.6,12.011,12.011,0,0,0,87.245,75.385H75.385A3.367,3.367,0,0,0,71.967,78.8V115.59a3.367,3.367,0,0,0,3.417,3.417Zm3.367-23.52V82.018h7.89A5.83,5.83,0,0,1,93.125,88.6a5.93,5.93,0,0,1-6.483,6.885Z" fill="#9fc6ea"/>
        <path id="Trazado_75" data-name="Trazado 75" d="M113.63,119.258c7.136,0,11.559-3.568,11.559-9.247s-5.578-8.192-10.051-9.75c-3.518-1.206-5.679-2.061-5.679-3.769s1.307-2.211,3.92-2.211a7.187,7.187,0,0,1,5.578,2.111,3.116,3.116,0,0,0,5.327-2.161,3.267,3.267,0,0,0-.7-2.01,12.263,12.263,0,0,0-10.051-4.372c-6.483,0-10.5,3.317-10.5,8.644,0,6.433,5.88,8.443,10.051,10.051,3.468,1.156,5.578,1.96,5.578,3.618s-2.714,2.865-5.026,2.865a8.594,8.594,0,0,1-6.584-2.463,3.367,3.367,0,0,0-2.312-1.005,3.116,3.116,0,0,0-3.116,3.116,3.317,3.317,0,0,0,.7,2.01A15.077,15.077,0,0,0,113.63,119.258Z" fill="#9fc6ea"/>
      </g>
    </g>
  </g>
</svg>
