<svg xmlns="http://www.w3.org/2000/svg" xmlns:xlink="http://www.w3.org/1999/xlink" width="45" height="45" viewBox="0 0 45 45">
  <defs>
    <clipPath id="clip-path">
      <rect id="Rectángulo_258" data-name="Rectángulo 258" width="45" height="45" transform="translate(1106 1033)" fill="#fff" stroke="#707070" stroke-width="1"/>
    </clipPath>
  </defs>
  <g id="Enmascarar_grupo_41" data-name="Enmascarar grupo 41" transform="translate(-1106 -1033)" clip-path="url(#clip-path)">
    <g id="ps" transform="translate(1106 1033)">
      <g id="Capa_1" data-name="Capa 1">
        <path id="Trazado_139" data-name="Trazado 139" d="M10.385,0H34.615A10.385,10.385,0,0,1,45,10.385V45H0V10.385A10.385,10.385,0,0,1,10.385,0Z" fill="#2d3067"/>
        <path id="Trazado_140" data-name="Trazado 140" d="M32.054,12.173H12.912a.738.738,0,0,0-.738.738V32.054a.738.738,0,0,0,.738.738H32.054a.727.727,0,0,0,.738-.738V12.912a.738.738,0,0,0-.738-.738Zm-.738,19.142H13.65V13.65H31.315V31.315Z" fill="#9fc6ea"/>
        <path id="Trazado_141" data-name="Trazado 141" d="M17.308,27.323a.773.773,0,0,0,.785-.785v-3.2h1.95a2.746,2.746,0,0,0,2.931-3,2.758,2.758,0,0,0-2.942-3.035H17.308a.773.773,0,0,0-.785.785v8.446a.773.773,0,0,0,.785.785Zm.773-5.4V18.831h1.812a1.338,1.338,0,0,1,1.488,1.512,1.362,1.362,0,0,1-1.488,1.581Z" fill="#9fc6ea"/>
        <path id="Trazado_142" data-name="Trazado 142" d="M26.088,27.381c1.638,0,2.654-.819,2.654-2.123s-1.281-1.881-2.308-2.238c-.808-.277-1.3-.473-1.3-.865s.3-.508.9-.508a1.65,1.65,0,0,1,1.281.485.715.715,0,0,0,1.223-.5.75.75,0,0,0-.162-.462,2.815,2.815,0,0,0-2.308-1c-1.488,0-2.412.762-2.412,1.985,0,1.477,1.35,1.938,2.308,2.308.8.265,1.281.45,1.281.831s-.623.658-1.154.658a1.973,1.973,0,0,1-1.512-.565.773.773,0,0,0-.531-.231.715.715,0,0,0-.715.715.762.762,0,0,0,.162.462A3.462,3.462,0,0,0,26.088,27.381Z" fill="#9fc6ea"/>
      </g>
    </g>
  </g>
</svg>
