<svg xmlns="http://www.w3.org/2000/svg" xmlns:xlink="http://www.w3.org/1999/xlink" width="58" height="54" viewBox="0 0 58 54">
  <defs>
    <clipPath id="clip-path">
      <path id="Rectángulo_211" data-name="Rectángulo 211" d="M24,0H34A24,24,0,0,1,58,24V54a0,0,0,0,1,0,0H0a0,0,0,0,1,0,0V24A24,24,0,0,1,24,0Z" transform="translate(362 1793)" fill="#37424a"/>
    </clipPath>
  </defs>
  <g id="Enmascarar_grupo_11" data-name="Enmascarar grupo 11" transform="translate(-362 -1793)" clip-path="url(#clip-path)">
    <g id="Recurso_11" data-name="Recurso 11" transform="translate(364 1793)">
      <g id="Capa_1" data-name="Capa 1">
        <path id="Trazado_41" data-name="Trazado 41" d="M12.462,0H41.538A12.462,12.462,0,0,1,54,12.462V54H0V12.462A12.462,12.462,0,0,1,12.462,0Z" fill="#2d3067"/>
        <path id="Trazado_42" data-name="Trazado 42" d="M38.465,14.608H15.494a.886.886,0,0,0-.886.886V38.465a.886.886,0,0,0,.886.886H38.465a.872.872,0,0,0,.886-.886V15.494a.886.886,0,0,0-.886-.886Zm-.886,22.971H16.38V16.38h21.2v21.2Z" fill="#9fc6ea"/>
        <path id="Trazado_43" data-name="Trazado 43" d="M20.769,32.788a.928.928,0,0,0,.942-.942V28.011h2.34a3.3,3.3,0,0,0,3.517-3.6,3.309,3.309,0,0,0-3.531-3.642H20.769a.928.928,0,0,0-.942.942V31.846a.928.928,0,0,0,.942.942Zm.928-6.48V22.6h2.174a1.606,1.606,0,0,1,1.786,1.814,1.634,1.634,0,0,1-1.786,1.9Z" fill="#9fc6ea"/>
        <path id="Trazado_44" data-name="Trazado 44" d="M31.306,32.857c1.966,0,3.185-.983,3.185-2.548s-1.537-2.257-2.769-2.686c-.969-.332-1.565-.568-1.565-1.038s.36-.609,1.08-.609a1.98,1.98,0,0,1,1.537.582.858.858,0,0,0,1.468-.6.9.9,0,0,0-.194-.554,3.378,3.378,0,0,0-2.769-1.2c-1.786,0-2.894.914-2.894,2.382,0,1.772,1.62,2.326,2.769,2.769.955.318,1.537.54,1.537,1s-.748.789-1.385.789a2.368,2.368,0,0,1-1.814-.678.928.928,0,0,0-.637-.277.858.858,0,0,0-.858.858.914.914,0,0,0,.194.554A4.154,4.154,0,0,0,31.306,32.857Z" fill="#9fc6ea"/>
      </g>
    </g>
  </g>
</svg>
