<svg xmlns="http://www.w3.org/2000/svg" xmlns:xlink="http://www.w3.org/1999/xlink" width="92" height="134" viewBox="0 0 92 134">
  <defs>
    <clipPath id="clip-path">
      <rect id="Rect치ngulo_236" data-name="Rect치ngulo 236" width="77.82" height="70.21" transform="translate(0 0)" fill="#d8bebe" stroke="#707070" stroke-width="1"/>
    </clipPath>
  </defs>
  <g id="Grupo_75" data-name="Grupo 75" transform="translate(-295 -562)">
    <rect id="Rect치ngulo_351" data-name="Rect치ngulo 351" width="92" height="134" transform="translate(295 562)" fill="none" opacity="0.451"/>
    <g id="Enmascarar_grupo_26" data-name="Enmascarar grupo 26" transform="translate(302.515 575)" clip-path="url(#clip-path)">
      <g id="social_media" data-name="social media" transform="translate(1.055 0)">
        <g id="Capa_1" data-name="Capa 1">
          <g id="outline">
            <path id="Trazado_98" data-name="Trazado 98" d="M11.912,21.091l4.506,3.38a1.433,1.433,0,0,0,1.712,0l4.506-3.38a4.507,4.507,0,0,0,1.8-3.551v-.757a4.443,4.443,0,0,0-6.426-3.975,1.6,1.6,0,0,1-1.433,0,4.443,4.443,0,0,0-6.426,3.975v.757a4.444,4.444,0,0,0,1.758,3.551Zm1.082-4.308a1.6,1.6,0,0,1,1.586-1.6,1.658,1.658,0,0,1,.712.171,4.506,4.506,0,0,0,3.975,0,1.586,1.586,0,0,1,2.127.712,1.487,1.487,0,0,1,.171.712v.757a1.6,1.6,0,0,1-.64,1.271l-3.65,2.7-3.605-2.7a1.613,1.613,0,0,1-.631-1.271Z" transform="translate(-1.565 -1.902)" fill="#ef797a"/>
            <path id="Trazado_99" data-name="Trazado 99" d="M35.2,23.9H48.063a1.433,1.433,0,0,0,1.415-1.226l1.424-10a1.424,1.424,0,0,0-1.208-1.613H46.666V8.18a1.424,1.424,0,0,0-1.424-1.424H40.916a1.433,1.433,0,0,0-1.19.595L37.292,11H35.2a1.433,1.433,0,0,0-1.424,1.433V22.466A1.433,1.433,0,0,0,35.2,23.9Zm1.433-10h1.424a1.424,1.424,0,0,0,1.19-.631l2.434-3.65h2.091V12.47a1.433,1.433,0,0,0,1.433,1.424h2.632l-1.018,7.148H36.634Z" transform="translate(-5.206 -1.041)" fill="#ef797a"/>
            <path id="Trazado_100" data-name="Trazado 100" d="M63.737,17.67l-.9,4.353a1.442,1.442,0,0,0,1.118,1.685,1.379,1.379,0,0,0,.811-.081l4.579-1.8,4.57,1.8a1.334,1.334,0,0,0,.532.108A1.433,1.433,0,0,0,75.869,22.3a1.639,1.639,0,0,0,0-.288l-.9-4.344,2.524-2.524a1.424,1.424,0,0,0,0-2.019,1.469,1.469,0,0,0-.658-.379l-3.47-.883L70.578,7.44a1.487,1.487,0,0,0-2.064-.361,1.523,1.523,0,0,0-.361.361L65.4,11.866l-3.515.9a1.433,1.433,0,0,0-1.045,1.713,1.451,1.451,0,0,0,.379.667Zm2.911-3.164a1.451,1.451,0,0,0,.9-.631l1.8-2.965L71.2,13.885a1.406,1.406,0,0,0,.9.631l1.631.406L72.462,16.2a1.433,1.433,0,0,0-.388,1.28l.478,2.5L69.9,18.914a1.442,1.442,0,0,0-1.064,0l-2.686,1.064.5-2.524a1.433,1.433,0,0,0-.388-1.28l-1.28-1.28Z" transform="translate(-9.371 -1.05)" fill="#ef797a"/>
            <path id="Trazado_101" data-name="Trazado 101" d="M0,8.572V20a8.59,8.59,0,0,0,8.571,8.572H45.714v6.58a2.857,2.857,0,0,0,4.876,2.019L59.161,28.6h7.977A8.59,8.59,0,0,0,75.709,20V8.572A8.59,8.59,0,0,0,67.138,0H8.553A8.59,8.59,0,0,0,0,8.572Zm2.857,0A5.714,5.714,0,0,1,8.571,2.857H67.156A5.714,5.714,0,0,1,72.87,8.572V20a5.714,5.714,0,0,1-5.714,5.714H58.584a1.46,1.46,0,0,0-1.009.415l-9.013,9.013v-8a1.433,1.433,0,0,0-1.433-1.424H8.571A5.714,5.714,0,0,1,2.857,20Z" fill="#ef797a"/>
            <path id="Trazado_102" data-name="Trazado 102" d="M43.033,40.785a1.46,1.46,0,0,0-1.307-.171l-15,5.462a3.046,3.046,0,0,1-.982.171H14.363a9.284,9.284,0,0,0-2.145,18.306v6.688a5,5,0,1,0,10,0v-.712h.595a5.119,5.119,0,0,0,5.119-5.1l13.8,5.011a1.3,1.3,0,0,0,.487.09A1.433,1.433,0,0,0,43.646,69.1V62.841l2.361-1.181a6.048,6.048,0,0,0,0-10.816l-2.361-1.19v-7.7a1.433,1.433,0,0,0-.613-1.172ZM7.928,55.531A6.435,6.435,0,0,1,14.363,49.1H16.5V61.957H14.363a6.435,6.435,0,0,1-6.435-6.427Zm11.428,15.71a2.145,2.145,0,1,1-4.281,0V64.832h4.281Zm5.714-5.832a2.262,2.262,0,0,1-2.262,2.262h-.595V64.832H25.07ZM40.789,50.528v16.53L27.693,62.3a5.714,5.714,0,0,0-1.947-.343h-6.39V49.1h6.39a5.8,5.8,0,0,0,1.956-.343L40.789,44Zm3.948,2.857a3.2,3.2,0,0,1,0,5.714h0l-1.091.55V52.845Z" transform="translate(-0.789 -6.246)" fill="#ef797a"/>
          </g>
        </g>
      </g>
    </g>
    <text id="PUBLICIDAD" transform="translate(302.515 675.297)" fill="#f27979" font-size="13" font-family="Poppins-Medium, Poppins Medium" font-weight="500"><tspan x="0" y="0">PUBLICIDAD</tspan></text>
  </g>
</svg>
