<svg xmlns="http://www.w3.org/2000/svg" xmlns:xlink="http://www.w3.org/1999/xlink" width="92" height="124" viewBox="0 0 92 124">
  <defs>
    <clipPath id="clip-path">
      <rect id="Rectángulo_236" data-name="Rectángulo 236" width="92" height="83" transform="translate(307 384)" fill="#d8bebe" stroke="#707070" stroke-width="1"/>
    </clipPath>
  </defs>
  <g id="Grupo_59" data-name="Grupo 59" transform="translate(-297 -785)">
    <g id="Enmascarar_grupo_26" data-name="Enmascarar grupo 26" transform="translate(-10 401)" clip-path="url(#clip-path)">
      <g id="social_media" data-name="social media" transform="translate(308.248 384)">
        <g id="Capa_1" data-name="Capa 1">
          <g id="outline">
            <path id="Trazado_98" data-name="Trazado 98" d="M12.232,22.685l5.328,4a1.694,1.694,0,0,0,2.025,0l5.328-4a5.328,5.328,0,0,0,2.131-4.2v-.9a5.253,5.253,0,0,0-7.6-4.7,1.9,1.9,0,0,1-1.694,0,5.253,5.253,0,0,0-7.6,4.7v.9a5.253,5.253,0,0,0,2.078,4.2Zm1.279-5.093a1.9,1.9,0,0,1,1.875-1.886,1.961,1.961,0,0,1,.842.2,5.328,5.328,0,0,0,4.7,0,1.875,1.875,0,0,1,2.515.842,1.758,1.758,0,0,1,.2.842v.9a1.886,1.886,0,0,1-.757,1.5l-4.315,3.2-4.262-3.2a1.907,1.907,0,0,1-.746-1.5Z" fill="#ef797a"/>
            <path id="Trazado_99" data-name="Trazado 99" d="M35.461,27.022H50.666a1.694,1.694,0,0,0,1.673-1.449l1.684-11.827a1.684,1.684,0,0,0-1.428-1.907h-3.58v-3.4a1.684,1.684,0,0,0-1.684-1.684H42.216a1.694,1.694,0,0,0-1.406.7l-2.877,4.315H35.461a1.694,1.694,0,0,0-1.684,1.694V25.328a1.694,1.694,0,0,0,1.684,1.694Zm1.694-11.827h1.684a1.684,1.684,0,0,0,1.407-.746l2.877-4.315h2.472v3.378a1.694,1.694,0,0,0,1.694,1.684H50.4l-1.2,8.45H37.155Z" fill="#ef797a"/>
            <path id="Trazado_100" data-name="Trazado 100" d="M64.273,19.648l-1.066,5.147a1.7,1.7,0,0,0,1.321,1.993,1.63,1.63,0,0,0,.959-.1L70.9,24.56l5.4,2.131a1.577,1.577,0,0,0,.629.128,1.694,1.694,0,0,0,1.684-1.694,1.938,1.938,0,0,0,0-.341l-1.066-5.136,2.983-2.983a1.684,1.684,0,0,0,0-2.387,1.737,1.737,0,0,0-.778-.448l-4.1-1.044L72.36,7.555a1.758,1.758,0,0,0-2.44-.426,1.8,1.8,0,0,0-.426.426l-3.261,5.232-4.156,1.066a1.694,1.694,0,0,0-1.236,2.025,1.716,1.716,0,0,0,.448.788Zm3.442-3.74a1.716,1.716,0,0,0,1.066-.746l2.131-3.506L73.1,15.173a1.662,1.662,0,0,0,1.066.746l1.929.479-1.5,1.513a1.694,1.694,0,0,0-.458,1.513l.565,2.952-3.133-1.257a1.7,1.7,0,0,0-1.257,0l-3.175,1.257.6-2.983a1.694,1.694,0,0,0-.458-1.513l-1.513-1.513Z" fill="#ef797a"/>
            <path id="Trazado_101" data-name="Trazado 101" d="M0,10.133V23.644A10.155,10.155,0,0,0,10.133,33.777h43.91v7.778a3.378,3.378,0,0,0,5.765,2.387L69.941,33.809h9.43A10.155,10.155,0,0,0,89.5,23.644V10.133A10.155,10.155,0,0,0,79.371,0H10.112A10.154,10.154,0,0,0,0,10.133Zm3.378,0a6.755,6.755,0,0,1,6.755-6.755H79.393a6.755,6.755,0,0,1,6.755,6.755V23.644A6.755,6.755,0,0,1,79.393,30.4H69.259a1.726,1.726,0,0,0-1.193.49L57.411,41.545V32.083A1.694,1.694,0,0,0,55.717,30.4H10.133a6.755,6.755,0,0,1-6.755-6.755Z" fill="#ef797a"/>
            <path id="Trazado_102" data-name="Trazado 102" d="M49.941,40.831a1.726,1.726,0,0,0-1.545-.2l-17.73,6.457a3.6,3.6,0,0,1-1.161.2H16.047a10.975,10.975,0,0,0-2.536,21.641v7.906a5.914,5.914,0,1,0,11.817,0v-.842h.7a6.052,6.052,0,0,0,6.052-6.031L48.4,75.887a1.534,1.534,0,0,0,.575.107,1.694,1.694,0,0,0,1.694-1.684V66.9l2.792-1.4a7.15,7.15,0,0,0,0-12.786l-2.792-1.406v-9.1a1.694,1.694,0,0,0-.725-1.385ZM8.439,58.263a7.608,7.608,0,0,1,7.608-7.6h2.525V65.86H16.047a7.608,7.608,0,0,1-7.608-7.6ZM21.95,76.835a2.536,2.536,0,1,1-5.061,0V69.259H21.95Zm6.755-6.894a2.674,2.674,0,0,1-2.674,2.674h-.7V69.259h3.378ZM47.288,52.349V71.891L31.806,66.265a6.755,6.755,0,0,0-2.3-.4H21.95V50.666H29.5a6.862,6.862,0,0,0,2.312-.4l15.471-5.626Zm4.667,3.378a3.783,3.783,0,0,1,0,6.755h0l-1.289.65V55.088Z" fill="#ef797a"/>
          </g>
        </g>
      </g>
    </g>
    <text id="PUBLICIDAD" transform="translate(297 903)" fill="#f27979" font-size="16" font-family="Poppins-Medium, Poppins Medium" font-weight="500"><tspan x="0" y="0">PUBLICIDAD</tspan></text>
  </g>
</svg>
