<svg xmlns="http://www.w3.org/2000/svg" xmlns:xlink="http://www.w3.org/1999/xlink" width="92" height="134" viewBox="0 0 92 134">
  <defs>
    <clipPath id="clip-path">
      <rect id="Rect치ngulo_233" data-name="Rect치ngulo 233" width="77.82" height="70.207" fill="#d8bebe" stroke="#707070" stroke-width="1"/>
    </clipPath>
  </defs>
  <g id="Grupo_78" data-name="Grupo 78" transform="translate(-809.82 -428)">
    <g id="Grupo_68" data-name="Grupo 68" transform="translate(817 442)">
      <text id="VIDEOS" transform="translate(14.38 100.279)" fill="#fff" font-size="13" font-family="Poppins-Medium, Poppins Medium" font-weight="500"><tspan x="0" y="0">VIDEOS</tspan></text>
      <g id="Enmascarar_grupo_36" data-name="Enmascarar grupo 36" transform="translate(0 0)" clip-path="url(#clip-path)">
        <g id="Recurso_22" data-name="Recurso 22" transform="translate(0 4.651)">
          <g id="Capa_1" data-name="Capa 1" transform="translate(0)">
            <path id="Trazado_124" data-name="Trazado 124" d="M71.054,60.9H6.748A6.775,6.775,0,0,1,0,54.129V6.766A6.766,6.766,0,0,1,6.766,0H71.073A6.766,6.766,0,0,1,77.82,6.766V54.129A6.775,6.775,0,0,1,71.054,60.9ZM18.64,3.383H6.766A3.392,3.392,0,0,0,3.383,6.766v3.383H18.64Zm18.64,0H21.995v6.766H37.214Zm18.64,0H40.6v6.766H55.825Zm18.64,3.383a3.392,3.392,0,0,0-3.383-3.383H59.209v6.766H74.437Zm0,6.766H3.383V47.363H74.437Zm0,37.214H59.209v6.775H55.825V50.746H40.6v6.775H37.214V50.746H21.995v6.775H18.64V50.746H3.383v3.383a3.392,3.392,0,0,0,3.383,3.392H71.073a3.392,3.392,0,0,0,3.383-3.392ZM34.884,40.206a1.659,1.659,0,0,1-1.053.391,1.687,1.687,0,0,1-1.687-1.687V21.995a1.7,1.7,0,0,1,1.687-1.7,1.612,1.612,0,0,1,.932.336l13.169,8.257a1.678,1.678,0,0,1,1.128,1.575,1.65,1.65,0,0,1-.69,1.323Z" transform="translate(0)" fill="#fff"/>
          </g>
        </g>
      </g>
    </g>
    <rect id="Rect치ngulo_345" data-name="Rect치ngulo 345" width="92" height="134" transform="translate(809.82 428)" fill="none" opacity="0.16"/>
  </g>
</svg>
