<svg xmlns="http://www.w3.org/2000/svg" xmlns:xlink="http://www.w3.org/1999/xlink" width="92" height="125" viewBox="0 0 92 125">
  <defs>
    <clipPath id="clip-path">
      <rect id="Rectángulo_235" data-name="Rectángulo 235" width="92" height="83" transform="translate(1135 486)" fill="#d8bebe" stroke="#707070" stroke-width="1"/>
    </clipPath>
  </defs>
  <g id="Grupo_70" data-name="Grupo 70" transform="translate(-1135 -486)">
    <text id="WEB" transform="translate(1163 605)" fill="#fff" font-size="16" font-family="Poppins-Medium, Poppins Medium" font-weight="500"><tspan x="0" y="0">WEB</tspan></text>
    <g id="Enmascarar_grupo_32" data-name="Enmascarar grupo 32" clip-path="url(#clip-path)">
      <g id="Recurso_18" data-name="Recurso 18" transform="translate(1135 487.354)">
        <g id="Capa_1" data-name="Capa 1">
          <g id="outline">
            <rect id="Rectángulo_246" data-name="Rectángulo 246" width="3.34" height="3.34" transform="translate(13.384 71.924)" fill="#fff"/>
            <path id="Trazado_112" data-name="Trazado 112" d="M86.984,0H16.724a5.016,5.016,0,0,0-5.016,5.016v23.46H5.016A5.016,5.016,0,0,0,0,33.46V75.276a5.016,5.016,0,0,0,5.016,5.016H25.092a5.016,5.016,0,0,0,5.016-5.016V65.232H41.816v4.556l-4.775,7.973a1.665,1.665,0,0,0,.57,2.289,1.719,1.719,0,0,0,.865.241H65.232a1.665,1.665,0,0,0,1.676-1.676,1.555,1.555,0,0,0-.241-.854l-4.775-7.973V65.232H86.984A5.016,5.016,0,0,0,92,60.238V5.016A5.016,5.016,0,0,0,86.984,0ZM26.746,75.276A1.676,1.676,0,0,1,25.07,76.94H5.016A1.676,1.676,0,0,1,3.34,75.276V70.26H26.768Zm0-8.368H3.34V38.432H26.768Zm0-31.762H3.34V33.46a1.676,1.676,0,0,1,1.676-1.7H25.092a1.676,1.676,0,0,1,1.676,1.676Zm-1.654-6.67H21.74V10.032h8.368V33.46a5.016,5.016,0,0,0-5.016-4.983ZM62.33,76.984H41.52l3.384-5.87a1.709,1.709,0,0,0,.241-.854V65.232H58.54V70.26a1.709,1.709,0,0,0,.241.854ZM88.714,60.238a1.676,1.676,0,0,1-1.676,1.676H30.108V51.86H88.714Zm0-11.708H30.108V43.492h1.654a1.676,1.676,0,0,0,1.676-1.676V8.368a1.676,1.676,0,0,0-1.676-1.676H20.076A1.665,1.665,0,0,0,18.4,8.368V28.476H15.06V5.016A1.676,1.676,0,0,1,16.724,3.34H86.984a1.687,1.687,0,0,1,1.73,1.676Z" fill="#fff"/>
            <rect id="Rectángulo_247" data-name="Rectángulo 247" width="3.34" height="3.34" transform="translate(50.184 55.2)" fill="#fff"/>
            <path id="Trazado_113" data-name="Trazado 113" d="M15.06,58.54A8.357,8.357,0,1,0,9.143,56.1,8.368,8.368,0,0,0,15.06,58.54Zm0-13.373a5.016,5.016,0,1,1-3.554,1.465,5.016,5.016,0,0,1,3.554-1.465Z" fill="#fff"/>
            <rect id="Rectángulo_248" data-name="Rectángulo 248" width="16.724" height="3.34" transform="translate(6.692 60.216)" fill="#fff"/>
            <path id="Trazado_114" data-name="Trazado 114" d="M51.86,6.692A15.06,15.06,0,1,0,66.908,21.744,15.06,15.06,0,0,0,51.86,6.692Zm0,26.768A11.719,11.719,0,1,1,63.524,21.74,11.719,11.719,0,0,1,51.86,33.46Z" fill="#fff"/>
            <rect id="Rectángulo_249" data-name="Rectángulo 249" width="26.768" height="3.34" transform="translate(38.476 40.14)" fill="#fff"/>
            <path id="Trazado_115" data-name="Trazado 115" d="M83.632,6.692H71.924A1.665,1.665,0,0,0,70.26,8.368V23.416a1.665,1.665,0,0,0,1.665,1.676H83.632a1.665,1.665,0,0,0,1.676-1.676V8.368a1.665,1.665,0,0,0-1.676-1.676ZM81.968,21.74H73.6V10.032h8.368Z" fill="#fff"/>
            <path id="Trazado_116" data-name="Trazado 116" d="M83.632,28.476H71.924a1.676,1.676,0,0,0-1.665,1.676V41.816a1.665,1.665,0,0,0,1.665,1.676H83.632a1.665,1.665,0,0,0,1.676-1.676V30.108a1.676,1.676,0,0,0-1.676-1.632ZM81.968,40.14H73.6V31.762h8.368Z" fill="#fff"/>
          </g>
        </g>
      </g>
    </g>
  </g>
</svg>
