<svg xmlns="http://www.w3.org/2000/svg" xmlns:xlink="http://www.w3.org/1999/xlink" width="92" height="134" viewBox="0 0 92 134">
  <defs>
    <clipPath id="clip-path">
      <rect id="Rectángulo_235" data-name="Rectángulo 235" width="77.82" height="70.207" fill="#d8bebe" stroke="#707070" stroke-width="1"/>
    </clipPath>
  </defs>
  <g id="Grupo_80" data-name="Grupo 80" transform="translate(-1141 -428)">
    <g id="Grupo_70" data-name="Grupo 70" transform="translate(1149 442)">
      <text id="WEB" transform="translate(23.684 100.279)" fill="#fff" font-size="13" font-family="Poppins-Medium, Poppins Medium" font-weight="500"><tspan x="0" y="0">WEB</tspan></text>
      <g id="Enmascarar_grupo_32" data-name="Enmascarar grupo 32" transform="translate(0 0)" clip-path="url(#clip-path)">
        <g id="Recurso_18" data-name="Recurso 18" transform="translate(0 1.145)">
          <g id="Capa_1" data-name="Capa 1" transform="translate(0)">
            <g id="outline">
              <rect id="Rectángulo_246" data-name="Rectángulo 246" width="2.826" height="2.826" transform="translate(11.321 60.839)" fill="#fff"/>
              <path id="Trazado_112" data-name="Trazado 112" d="M73.577,0H14.147A4.243,4.243,0,0,0,9.9,4.243V24.087H4.243A4.243,4.243,0,0,0,0,28.3V63.674a4.243,4.243,0,0,0,4.243,4.243H21.225a4.243,4.243,0,0,0,4.243-4.243v-8.5h9.9v3.854l-4.039,6.744a1.408,1.408,0,0,0,.482,1.936,1.454,1.454,0,0,0,.732.2H55.178A1.408,1.408,0,0,0,56.6,66.5a1.316,1.316,0,0,0-.2-.723l-4.039-6.744V55.178H73.577a4.243,4.243,0,0,0,4.243-4.225V4.243A4.243,4.243,0,0,0,73.577,0ZM22.623,63.674a1.417,1.417,0,0,1-1.417,1.408H4.243a1.417,1.417,0,0,1-1.417-1.408V59.431H22.642Zm0-7.078H2.826V32.508H22.642Zm0-26.866H2.826V28.3a1.417,1.417,0,0,1,1.417-1.436H21.225a1.417,1.417,0,0,1,1.417,1.417Zm-1.4-5.642H18.39V8.486h7.078V28.3a4.243,4.243,0,0,0-4.243-4.215Zm31.5,41.032h-17.6l2.863-4.966a1.445,1.445,0,0,0,.2-.723V55.178h11.33v4.252a1.445,1.445,0,0,0,.2.723ZM75.041,50.954a1.417,1.417,0,0,1-1.417,1.417H25.468v-8.5H75.041Zm0-9.9H25.468V36.789h1.4a1.417,1.417,0,0,0,1.417-1.417V7.078A1.417,1.417,0,0,0,26.866,5.66H16.981a1.408,1.408,0,0,0-1.417,1.417V24.087H12.738V4.243a1.417,1.417,0,0,1,1.408-1.417H73.577a1.427,1.427,0,0,1,1.464,1.417Z" transform="translate(0)" fill="#fff"/>
              <rect id="Rectángulo_247" data-name="Rectángulo 247" width="2.826" height="2.826" transform="translate(42.449 46.692)" fill="#fff"/>
              <path id="Trazado_113" data-name="Trazado 113" d="M13.77,55.961a7.069,7.069,0,1,0-5-2.067A7.078,7.078,0,0,0,13.77,55.961Zm0-11.312a4.243,4.243,0,1,1-3.006,1.239A4.243,4.243,0,0,1,13.77,44.649Z" transform="translate(-1.031 -6.443)" fill="#fff"/>
              <rect id="Rectángulo_248" data-name="Rectángulo 248" width="14.147" height="2.826" transform="translate(5.66 50.935)" fill="#fff"/>
              <path id="Trazado_114" data-name="Trazado 114" d="M49.537,6.692A12.738,12.738,0,1,0,62.266,19.424,12.738,12.738,0,0,0,49.537,6.692Zm0,22.642A9.913,9.913,0,1,1,59.4,19.421a9.913,9.913,0,0,1-9.866,9.913Z" transform="translate(-5.67 -1.031)" fill="#fff"/>
              <rect id="Rectángulo_249" data-name="Rectángulo 249" width="22.642" height="2.826" transform="translate(32.546 33.954)" fill="#fff"/>
              <path id="Trazado_115" data-name="Trazado 115" d="M81.571,6.692h-9.9A1.408,1.408,0,0,0,70.26,8.109V20.838a1.408,1.408,0,0,0,1.408,1.417h9.9a1.408,1.408,0,0,0,1.417-1.417V8.109a1.408,1.408,0,0,0-1.417-1.417ZM80.163,19.421H73.085v-9.9h7.078Z" transform="translate(-10.829 -1.031)" fill="#fff"/>
              <path id="Trazado_116" data-name="Trazado 116" d="M81.571,28.476h-9.9a1.417,1.417,0,0,0-1.408,1.417V39.76a1.408,1.408,0,0,0,1.408,1.417h9.9a1.408,1.408,0,0,0,1.417-1.417v-9.9a1.417,1.417,0,0,0-1.417-1.38Zm-1.408,9.866H73.085V31.255h7.078Z" transform="translate(-10.829 -4.389)" fill="#fff"/>
            </g>
          </g>
        </g>
      </g>
    </g>
    <rect id="Rectángulo_347" data-name="Rectángulo 347" width="92" height="134" transform="translate(1141 428)" fill="none" opacity="0.16"/>
  </g>
</svg>
