<svg xmlns="http://www.w3.org/2000/svg" xmlns:xlink="http://www.w3.org/1999/xlink" width="92" height="134" viewBox="0 0 92 134">
  <defs>
    <clipPath id="clip-path">
      <rect id="Rectángulo_241" data-name="Rectángulo 241" width="77.82" height="70.21" transform="translate(0 0)" fill="#d8bebe" stroke="#707070" stroke-width="1"/>
    </clipPath>
  </defs>
  <g id="Grupo_80" data-name="Grupo 80" transform="translate(-1141 -562)">
    <rect id="Rectángulo_356" data-name="Rectángulo 356" width="92" height="134" transform="translate(1141 562)" fill="none" opacity="0.451"/>
    <g id="Enmascarar_grupo_31" data-name="Enmascarar grupo 31" transform="translate(1149.18 575)" clip-path="url(#clip-path)">
      <g id="web" transform="translate(0 1.145)">
        <g id="Capa_1" data-name="Capa 1" transform="translate(0)">
          <g id="outline">
            <rect id="Rectángulo_242" data-name="Rectángulo 242" width="2.826" height="2.826" transform="translate(11.321 60.841)" fill="#ef797a"/>
            <path id="Trazado_107" data-name="Trazado 107" d="M73.577,0H14.147A4.243,4.243,0,0,0,9.9,4.243V24.088H4.243A4.243,4.243,0,0,0,0,28.3V63.676a4.243,4.243,0,0,0,4.243,4.243H21.224a4.243,4.243,0,0,0,4.243-4.243v-8.5h9.9v3.854l-4.039,6.745a1.408,1.408,0,0,0,.482,1.936,1.454,1.454,0,0,0,.732.2H55.178A1.408,1.408,0,0,0,56.6,66.5a1.316,1.316,0,0,0-.2-.723l-4.039-6.745V55.18H73.577a4.243,4.243,0,0,0,4.243-4.225V4.243A4.243,4.243,0,0,0,73.577,0ZM22.623,63.676a1.417,1.417,0,0,1-1.417,1.408H4.243a1.417,1.417,0,0,1-1.417-1.408V59.433H22.642Zm0-7.078H2.826V32.51H22.642Zm0-26.868H2.826V28.3a1.417,1.417,0,0,1,1.417-1.436H21.224a1.417,1.417,0,0,1,1.417,1.417Zm-1.4-5.642H18.39V8.486h7.078V28.3A4.243,4.243,0,0,0,21.224,24.088Zm31.5,41.033h-17.6l2.863-4.966a1.445,1.445,0,0,0,.2-.723V55.18h11.33v4.252a1.445,1.445,0,0,0,.2.723ZM75.041,50.956a1.417,1.417,0,0,1-1.417,1.417H25.468v-8.5H75.041Zm0-9.9H25.468V36.79h1.4a1.417,1.417,0,0,0,1.417-1.418V7.078a1.417,1.417,0,0,0-1.417-1.417H16.981a1.408,1.408,0,0,0-1.417,1.417v17.01H12.738V4.243a1.417,1.417,0,0,1,1.408-1.417h59.43a1.427,1.427,0,0,1,1.464,1.417Z" transform="translate(0)" fill="#ef797a"/>
            <rect id="Rectángulo_243" data-name="Rectángulo 243" width="2.826" height="2.826" transform="translate(42.449 46.694)" fill="#ef797a"/>
            <path id="Trazado_108" data-name="Trazado 108" d="M13.77,55.962a7.069,7.069,0,1,0-5-2.067A7.078,7.078,0,0,0,13.77,55.962Zm0-11.312a4.243,4.243,0,1,1-3.006,1.24,4.243,4.243,0,0,1,3.006-1.24Z" transform="translate(-1.031 -6.442)" fill="#ef797a"/>
            <rect id="Rectángulo_244" data-name="Rectángulo 244" width="14.147" height="2.826" transform="translate(5.66 50.937)" fill="#ef797a"/>
            <path id="Trazado_109" data-name="Trazado 109" d="M49.537,6.692A12.739,12.739,0,1,0,62.266,19.425,12.739,12.739,0,0,0,49.537,6.692Zm0,22.643A9.913,9.913,0,1,1,59.4,19.422a9.913,9.913,0,0,1-9.866,9.913Z" transform="translate(-5.67 -1.031)" fill="#ef797a"/>
            <rect id="Rectángulo_245" data-name="Rectángulo 245" width="22.642" height="2.826" transform="translate(32.545 33.955)" fill="#ef797a"/>
            <path id="Trazado_110" data-name="Trazado 110" d="M81.571,6.692h-9.9A1.408,1.408,0,0,0,70.26,8.109v12.73a1.408,1.408,0,0,0,1.408,1.417h9.9a1.408,1.408,0,0,0,1.417-1.417V8.109a1.408,1.408,0,0,0-1.417-1.417Zm-1.408,12.73H73.085v-9.9h7.078Z" transform="translate(-10.829 -1.031)" fill="#ef797a"/>
            <path id="Trazado_111" data-name="Trazado 111" d="M81.571,28.476h-9.9a1.417,1.417,0,0,0-1.408,1.417v9.867a1.408,1.408,0,0,0,1.408,1.417h9.9a1.408,1.408,0,0,0,1.417-1.417v-9.9A1.417,1.417,0,0,0,81.571,28.476Zm-1.408,9.867H73.085V31.256h7.078Z" transform="translate(-10.829 -4.388)" fill="#ef797a"/>
          </g>
        </g>
      </g>
    </g>
    <text id="WEB-2" data-name="WEB" transform="translate(1172.381 675.297)" fill="#f27979" font-size="13" font-family="Poppins-Medium, Poppins Medium" font-weight="500"><tspan x="0" y="0">WEB</tspan></text>
  </g>
</svg>
